<svg xmlns="http://www.w3.org/2000/svg" viewBox="0 0 698.78 131.48"><defs><style>.cls-1{fill:#068e33;}</style></defs><g id="Layer_2" data-name="Layer 2"><g id="Layer_1-2" data-name="Layer 1"><path class="cls-1" d="M178.62,44.7c19.24-2.15,26.57-13.27,25.8-24.25-.62-8.91-8.54-22.92-28.25-20.07-11.72,1.69-24.7,11.17-30.66,27C137.36,17.53,123.93,8,108.21,7,76.79,5.21,42.92,27.79,31.7,64.52a39,39,0,0,0-.89,5C17.65,81.13.88,101.27,0,129.17a2.26,2.26,0,0,0,2.27,2.31h29.3a2.24,2.24,0,0,0,2.25-2.32c-.24-7.44-.08-31.13,10.49-46.22A110.64,110.64,0,0,0,69.52,98.2a108,108,0,0,0-5,31,2.26,2.26,0,0,0,2.26,2.3h39.18a1.6,1.6,0,0,0,1.38-2.42C104.83,124.9,99.53,116,97,106.55c3.77.68,7.64,1.27,11.76,1.62A64.91,64.91,0,0,0,151.2,96.73c-.1,12.46-4.8,25.66-7.5,31.57a2.24,2.24,0,0,0,2.05,3.18h38.46a2.28,2.28,0,0,0,2.27-2.31c-.54-26.3-10.95-43.18-19.78-52.84l0,0C154.79,62.45,159,46.89,178.62,44.7ZM174,10.47a6.83,6.83,0,1,1-6.83,6.83A6.82,6.82,0,0,1,174,10.47ZM77.75,79.6c-6.88-1.71-22-11.89-25.1-15,1.93-11.14,14.41-24,21.64-29.71A49.08,49.08,0,0,1,104,24.45c14.21.39,22.12,9.7,27,16.09.67.87.48,2.29-.61,2.42a73.82,73.82,0,0,0-30.58,11.2C90.82,60.19,83.43,69.22,77.75,79.6Zm46.86,11.81c-10.17,2.63-23.81.13-25.1-4.31s9.66-14,26.73-16.56c12.26-1.82,19.33.21,20.88,4.35C149,79.94,138.25,87.88,124.61,91.41Z"/><path d="M260.4,88.68V56.1h-9.62v-13h9.62V29.28h16V43.11h14.31v13H276.4V87.24c0,6.25,3.36,9.62,8.42,9.62a22.38,22.38,0,0,0,6.73-1.32V109a26.1,26.1,0,0,1-8.9,1.56C270,110.57,260.4,102.87,260.4,88.68Z"/><path d="M296.48,76.42c0-20.08,14.43-34.27,34.63-34.27s34.63,14.19,34.63,34.27-14.55,34.27-34.63,34.27S296.48,96.5,296.48,76.42ZM331.11,97c10.82,0,18.4-8.3,18.4-20.56s-7.58-20.69-18.4-20.69-18.52,8.42-18.52,20.69S320.17,97,331.11,97Z"/><path d="M374.71,43.11h16v9.38c3.37-6.14,8-10.34,15.77-10.34a22.4,22.4,0,0,1,7.94,1.32V58.74a22,22,0,0,0-8.78-1.68c-9.86,0-14.93,8.53-14.93,28.13v24.54h-16Z"/><path d="M430.38,88.68V56.1h-9.62v-13h9.62V29.28h16V43.11h14.31v13H446.37V87.24c0,6.25,3.37,9.62,8.42,9.62a22.32,22.32,0,0,0,6.73-1.32V109a26.06,26.06,0,0,1-8.9,1.56C440,110.57,430.38,102.87,430.38,88.68Z"/><path d="M466.45,76.42c0-20.08,14.43-34.27,34.63-34.27s34.63,14.19,34.63,34.27-14.55,34.27-34.63,34.27S466.45,96.5,466.45,76.42ZM501.08,97c10.82,0,18.4-8.3,18.4-20.56s-7.58-20.69-18.4-20.69-18.52,8.42-18.52,20.69S490.14,97,501.08,97Z"/><path d="M554.06,17.62c5.41,0,9.38,3.84,9.38,9s-4,9-9.38,9-9.38-3.85-9.38-9S548.65,17.62,554.06,17.62Zm-7.94,25.49H562v66.62H546.12Z"/><path d="M572.24,87.84h15.4c.48,6.25,5.29,10,12.5,10,6.26,0,10.22-3,10.22-7.69,0-12.87-36.31-4.33-36.31-28.86,0-10.83,9.26-19.12,23.69-19.12,15.75,0,25.85,7.93,26.93,20.8H609.28c-.72-5.41-4.93-8.66-11.42-8.66-5.17,0-8.78,2.41-8.78,6.25,0,12.15,36.67,2.53,36.67,29.23,0,12.62-10.46,20.92-25.61,20.92C583.91,110.69,573,101.67,572.24,87.84Z"/><path d="M633.21,76.42c0-20.08,14.07-34.27,33.31-34.27,21.52,0,34.75,16.47,31.86,37.51H649c1.2,11.43,8.3,17.68,18,17.68,8,0,13.35-3.61,14.79-9.38h16.35c-2.52,12.87-13.83,22.73-31.14,22.73C646.31,110.69,633.21,96.5,633.21,76.42ZM681.79,68c-.24-8.18-6.25-13.47-15.27-13.47-8.78,0-14.67,4.57-16.84,13.47Z"/></g></g></svg>